<svg width="60" height="70" viewBox="0 0 60 70" fill="none" xmlns="http://www.w3.org/2000/svg">
<path d="M54.6599 0.200175L17.4782 12.9781C16.7234 13.254 16.064 13.8029 15.5956 14.5449C15.1273 15.2869 14.8745 16.1834 14.8741 17.104V52.4547C13.6564 52.1108 12.4085 51.9329 11.1556 51.9246C4.99676 51.9246 0 55.8003 0 60.5794C0 65.3584 4.99676 69.2342 11.1556 69.2342C17.3144 69.2342 22.3111 65.3584 22.3111 60.5794V28.9786L52.0593 18.8363V43.8013C50.8418 43.4562 49.5938 43.2778 48.3407 43.2698C42.1819 43.2698 37.1852 47.1455 37.1852 51.9246C37.1852 56.7037 42.1819 60.5794 48.3407 60.5794C54.4995 60.5794 59.4963 56.705 59.4963 51.9246V4.32336C59.4957 3.64402 59.3578 2.97437 59.0935 2.3686C58.8293 1.76284 58.4462 1.23798 57.9753 0.836508C57.5044 0.435036 56.9589 0.168229 56.3829 0.0576806C55.8069 -0.0528681 55.2166 -0.00405295 54.6599 0.200175Z" fill="white"/>
</svg>
