<svg width="28" height="28" viewBox="0 0 28 28" fill="none" xmlns="http://www.w3.org/2000/svg">
<path d="M0 8.14025H6.59836L16.5246 0V28L6.59836 19.8598H0V8.14025ZM20.2541 6.8124C22.2049 8.77529 23.1994 11.1615 23.2377 13.9712C23.2377 16.6653 22.2432 18.9746 20.2541 20.899L18.2459 18.8207C19.623 17.4351 20.3115 15.7994 20.3115 13.9134C20.3115 11.989 19.6229 10.3148 18.2459 8.89076L20.2541 6.8124ZM23.6967 3.40621C26.5656 6.29281 28 9.77598 28 13.8557C28 17.9354 26.5656 21.4378 23.6967 24.3629L21.5738 22.2269C23.8689 19.9561 25.0164 17.1753 25.0164 13.8846C25.0164 10.5939 23.8689 7.79388 21.5738 5.48459L23.6967 3.40621Z" fill="black"/>
</svg>
